<?xml version="1.0" standalone="no"?>
<!DOCTYPE svg PUBLIC "-//W3C//DTD SVG 20010904//EN"
 "http://www.w3.org/TR/2001/REC-SVG-20010904/DTD/svg10.dtd">
<svg version="1.0" xmlns="http://www.w3.org/2000/svg"
 width="124.000000pt" height="89.000000pt" viewBox="0 0 124.000000 89.000000"
 preserveAspectRatio="xMidYMid meet">

<g transform="translate(0.000000,89.000000) scale(0.100000,-0.100000)"
fill="#000000" stroke="none">
<path d="M930 763 c-118 -20 -155 -55 -212 -206 -52 -136 -72 -157 -134 -133
-16 6 -16 8 2 21 10 8 31 15 45 15 27 0 49 32 49 71 0 26 -48 49 -60 29 -7
-12 -10 -12 -15 2 -9 24 -59 20 -71 -5 -8 -18 -19 -21 -82 -23 -58 -1 -80 -7
-107 -25 -36 -25 -41 -35 -27 -56 10 -16 61 -10 104 11 31 16 32 16 54 -11
l23 -28 -32 -13 c-18 -8 -42 -23 -55 -35 -21 -20 -35 -22 -140 -23 -64 0 -129
-6 -145 -12 -24 -10 -27 -16 -27 -62 0 -82 51 -185 96 -196 45 -11 209 122
198 161 -3 11 -2 16 3 10 4 -5 26 -11 48 -12 31 -1 36 0 23 8 -10 6 -18 20
-18 33 0 13 -9 35 -20 48 -19 25 -19 26 0 43 19 17 21 17 40 0 24 -22 43 -78
35 -105 -7 -22 2 -25 25 -10 8 5 10 10 3 10 -6 0 -14 18 -18 40 -4 22 -16 51
-26 64 l-20 25 27 7 c41 10 67 -26 62 -88 -2 -26 -2 -48 0 -48 18 0 64 37 80
65 26 42 41 43 118 9 166 -73 223 -94 251 -94 14 0 56 10 94 22 65 21 69 25
75 57 5 25 -2 67 -25 145 -34 118 -74 197 -129 258 -34 37 -41 40 -92 31z m57
-69 c24 -26 43 -43 43 -38 0 5 -14 25 -31 43 -35 39 -30 55 7 20 40 -37 92
-139 112 -218 10 -39 21 -69 24 -66 2 3 3 -9 0 -25 -2 -17 -6 -30 -7 -30 -2 0
-10 31 -20 69 -9 38 -24 78 -32 88 -14 17 -14 17 -8 -2 17 -48 35 -133 36
-175 1 -38 2 -41 9 -20 6 18 8 20 9 7 1 -23 -17 -57 -30 -57 -6 0 -7 5 -4 10
9 14 -5 12 -35 -5 -41 -23 -45 -18 -47 53 -1 59 -14 117 -38 175 -6 15 -1 17
41 18 27 1 42 3 33 6 -24 6 -50 67 -36 83 9 10 8 12 -5 7 -9 -3 -22 1 -29 9
-7 8 -26 14 -45 12 -25 -2 -41 5 -64 27 -32 31 -30 41 10 48 55 10 65 6 107
-39z m-111 -36 c13 -16 14 -19 3 -10 -9 7 -21 12 -25 11 -18 -3 -25 1 -19 11
9 15 20 12 41 -12z m-42 -18 c7 0 21 -10 32 -22 10 -13 12 -17 4 -10 -16 13
-34 17 -26 4 2 -4 -12 -8 -32 -9 -20 -1 -29 1 -19 4 10 3 17 15 18 31 0 15 3
21 6 15 2 -7 10 -13 17 -13z m134 -3 c15 -18 -40 -80 -62 -71 -9 3 -14 10 -11
15 3 4 13 5 23 2 15 -6 16 -5 2 13 -14 18 -14 18 3 5 15 -12 17 -11 17 8 0 13
-6 21 -17 21 -15 0 -16 2 -3 10 21 13 36 12 48 -3z m36 -53 c3 -8 2 -12 -4 -9
-6 3 -10 10 -10 16 0 14 7 11 14 -7z m-198 -31 c-11 -11 -19 6 -11 24 8 17 8
17 12 0 3 -10 2 -21 -1 -24z m-71 -13 c-5 -15 -3 -18 9 -14 13 5 16 -1 16 -30
0 -20 3 -36 8 -36 4 0 33 16 66 35 32 20 60 34 63 32 2 -3 -31 -25 -74 -49
-103 -59 -123 -70 -123 -64 0 3 14 13 31 22 l32 16 -30 15 -31 14 16 40 c16
40 28 54 17 19z m145 6 c0 -3 -4 -8 -10 -11 -5 -3 -10 -1 -10 4 0 6 5 11 10
11 6 0 10 -2 10 -4z m-337 -22 c-7 -3 -9 -13 -6 -22 4 -14 3 -14 -5 -2 -12 16
-7 30 11 29 9 0 9 -2 0 -5z m257 -15 c0 -24 -23 -21 -28 4 -2 10 3 17 12 17
10 0 16 -9 16 -21z m154 -2 c22 -90 15 -177 -15 -177 -18 0 -22 31 -5 43 20
15 24 77 7 120 -13 34 -13 37 -2 37 5 0 11 -10 15 -23z m-457 -11 c-2 -6 -13
-10 -23 -8 -10 1 -29 4 -41 5 -34 3 -28 15 10 19 40 4 59 -1 54 -16z m433 -58
c0 -48 -21 -45 -54 6 -19 29 -19 30 4 48 23 19 24 19 36 -4 8 -13 13 -35 14
-50z m-405 4 c-2 -3 -11 -2 -20 1 -12 5 -13 11 -3 33 l12 26 8 -28 c4 -15 5
-30 3 -32z m-165 27 c0 -5 -4 -9 -10 -9 -5 0 -10 7 -10 16 0 8 5 12 10 9 6 -3
10 -10 10 -16z m337 -31 c-3 -8 -6 -5 -6 6 -1 11 2 17 5 13 3 -3 4 -12 1 -19z
m73 -18 c0 -5 -8 -10 -17 -10 -15 0 -16 2 -3 10 19 12 20 12 20 0z m8 -27
c-10 -2 -26 -2 -35 0 -10 3 -2 5 17 5 19 0 27 -2 18 -5z m24 -27 c13 4 18 2
14 -4 -3 -6 -1 -14 5 -18 6 -3 15 -1 19 7 7 10 12 10 23 1 7 -7 17 -9 20 -5 4
3 7 -3 7 -15 0 -12 5 -22 12 -22 6 0 9 -3 5 -6 -7 -7 -185 65 -193 77 -2 5 12
2 31 -7 20 -8 46 -12 57 -8z m351 -47 c-5 -5 -6 11 -3 34 4 41 5 41 8 8 2 -18
0 -37 -5 -42z m-955 -1 c48 -52 82 -184 52 -203 -6 -4 -10 9 -10 33 0 50 -23
116 -56 159 -28 37 -19 45 14 11z m117 -31 c28 -58 32 -99 10 -117 -13 -11
-15 -7 -15 23 0 37 -31 120 -49 131 -15 10 -14 8 14 -48 28 -56 33 -117 10
-136 -13 -11 -15 -6 -15 31 0 44 -28 120 -56 150 -13 14 -10 16 30 17 44 0 46
-1 71 -51z m21 12 c8 -17 14 -34 12 -38 -2 -4 -12 12 -24 35 -23 48 -13 50 12
3z m92 16 c7 -14 12 -32 12 -40 0 -27 -15 -15 -32 25 -12 30 -13 40 -4 40 7 0
18 -11 24 -25z m-242 -39 c19 -29 44 -107 44 -139 0 -7 -6 -22 -14 -33 -14
-19 -15 -19 -40 5 -14 13 -35 48 -46 78 -45 122 -6 185 56 89z m171 -68 c-3
-7 -5 -2 -5 12 0 14 2 19 5 13 2 -7 2 -19 0 -25z"/>
<path d="M721 494 c0 -11 3 -14 6 -6 3 7 2 16 -1 19 -3 4 -6 -2 -5 -13z"/>
</g>
</svg>
