<?xml version="1.0" standalone="no"?>
<!DOCTYPE svg PUBLIC "-//W3C//DTD SVG 20010904//EN"
 "http://www.w3.org/TR/2001/REC-SVG-20010904/DTD/svg10.dtd">
<svg version="1.0" xmlns="http://www.w3.org/2000/svg"
 width="283.000000pt" height="171.000000pt" viewBox="0 0 283.000000 171.000000"
 preserveAspectRatio="xMidYMid meet">

<g transform="translate(0.000000,171.000000) scale(0.100000,-0.100000)"
fill="#000000" stroke="none">
<path d="M2375 1539 c-71 -27 -155 -58 -185 -69 -30 -11 -86 -31 -125 -46 -38
-14 -104 -38 -145 -54 -41 -15 -234 -86 -428 -159 -195 -72 -363 -131 -374
-131 -11 0 -25 -6 -32 -12 -7 -7 -105 -46 -217 -87 -112 -40 -219 -80 -238
-88 -19 -9 -82 -32 -140 -53 -58 -20 -113 -40 -121 -44 -8 -3 -87 -33 -174
-65 -87 -33 -163 -66 -167 -73 -14 -22 -22 -117 -15 -174 19 -161 143 -376
221 -384 34 -4 41 -1 91 33 27 19 87 48 134 64 47 17 387 143 756 281 444 166
678 248 695 245 17 -3 33 3 51 20 18 17 34 23 51 20 16 -3 31 2 44 16 24 26
92 50 125 44 18 -3 32 2 45 16 17 18 307 134 483 194 25 8 45 20 44 26 -1 6
-2 41 -3 79 -2 47 -5 60 -10 42 -7 -21 -10 -16 -20 35 -8 33 -24 89 -37 124
-27 72 -28 75 -14 66 6 -4 3 13 -7 37 -21 54 -73 118 -95 118 -11 0 -15 5 -12
15 11 27 -45 16 -181 -36z m193 -23 c97 -106 166 -330 136 -443 -10 -37 -59
-31 -99 11 -119 127 -199 448 -117 469 34 9 40 6 80 -37z m-129 -43 c7 -144
86 -334 172 -413 l30 -27 -48 -18 c-26 -10 -53 -22 -60 -27 -7 -6 -27 -13 -45
-17 -18 -5 -44 -12 -58 -16 -21 -7 -23 -6 -13 7 18 21 8 152 -17 223 -11 33
-46 101 -76 152 -31 51 -53 97 -50 102 4 5 -1 11 -10 13 -15 3 133 64 162 67
6 0 11 -20 13 -46z m221 -57 c0 -12 -5 -7 -19 24 -11 24 -11 24 3 6 9 -11 16
-24 16 -30z m-459 9 c-18 -8 -38 -15 -45 -14 -15 1 46 28 64 28 8 0 0 -6 -19
-14z m128 -130 c53 -106 74 -193 69 -278 -4 -70 -15 -89 -47 -80 -12 3 -15 14
-13 48 2 24 -1 52 -7 62 -10 17 -10 16 -11 -4 0 -13 -4 -23 -10 -23 -5 0 -10
-12 -10 -27 0 -26 0 -26 -22 -7 l-22 19 22 -32 c26 -37 27 -47 6 -67 -26 -27
-34 -18 -34 37 0 28 -5 59 -10 67 -7 11 -10 -1 -10 -42 0 -31 -4 -59 -9 -63
-18 -11 -60 62 -96 165 -20 57 -48 125 -61 152 -21 42 -33 118 -19 118 4 0 20
-7 38 -17 31 -16 31 -15 17 2 -14 17 -13 18 3 12 11 -4 16 -3 12 3 -3 6 -1 10
4 10 6 0 11 -9 11 -19 0 -11 5 -23 12 -27 8 -5 9 2 5 24 -7 35 3 41 23 17 7
-9 26 -25 41 -36 27 -19 28 -19 26 0 0 11 -4 18 -8 16 -3 -3 -16 7 -29 20
l-23 24 27 11 c15 5 32 10 37 10 6 0 8 4 4 10 -4 6 -15 6 -32 -1 -39 -15 -41
-2 -2 14 32 14 35 13 57 -12 12 -14 40 -62 61 -106z m-238 89 c-18 -8 -36 -13
-39 -10 -6 7 37 25 58 25 8 -1 0 -7 -19 -15z m29 -19 c-7 -8 -24 -15 -39 -14
l-26 1 30 13 c40 18 50 18 35 0z m-189 -40 c-18 -8 -38 -15 -45 -14 -15 1 46
28 64 28 8 0 0 -6 -19 -14z m99 -19 l-1 -31 -14 25 c-18 32 -18 37 0 37 10 0
15 -10 15 -31z m-72 -53 l-3 -27 -19 28 c-16 26 -17 28 -2 23 10 -4 15 -3 11
3 -3 6 -18 10 -33 11 -25 0 -25 1 8 13 32 12 35 11 38 -5 2 -10 2 -31 0 -46z
m89 -37 c3 -20 9 -33 14 -31 9 6 52 -105 44 -113 -3 -3 -5 -1 -5 4 0 6 -7 19
-15 30 -13 16 -13 13 0 -26 9 -24 23 -55 31 -68 10 -16 14 -42 12 -85 l-3 -62
-26 40 c-14 22 -31 63 -38 90 -7 28 -28 78 -47 113 -38 69 -50 123 -40 176 l7
36 30 -35 c17 -18 33 -50 36 -69z m-242 65 c-6 -5 -23 -12 -40 -16 l-30 -6 30
15 c35 17 53 20 40 7z m55 -46 c0 -25 -2 -45 -4 -45 -2 0 -12 12 -21 27 -16
24 -16 26 -1 20 10 -4 15 -3 11 3 -3 6 -13 10 -21 10 -33 0 -11 23 29 29 4 0
7 -19 7 -44z m56 17 c-4 -3 5 -17 18 -31 14 -14 40 -71 59 -126 19 -55 42
-120 51 -144 11 -29 14 -54 10 -75 -4 -17 -7 -34 -6 -38 2 -8 -47 -48 -59 -48
-4 0 -7 25 -6 56 l2 55 20 -25 c37 -46 37 -27 0 20 -19 26 -35 50 -35 55 0 4
-5 20 -12 36 -6 15 -11 31 -10 36 1 4 -2 7 -8 7 -5 0 -7 6 -4 14 3 7 -2 21
-11 30 -9 9 -14 16 -10 16 3 0 -2 14 -10 30 -9 18 -13 41 -10 53 4 15 3 18 -3
9 -6 -10 -11 1 -15 35 -6 58 -2 66 24 52 12 -6 18 -13 15 -17z m-221 -11 c-6
-5 -21 -11 -35 -15 -21 -5 -20 -3 5 9 35 17 42 18 30 6z m93 -47 c-2 -24 -3
-44 -4 -44 0 0 -11 15 -24 33 -19 26 -20 29 -3 14 19 -17 20 -16 20 12 0 22
-4 28 -16 24 -14 -4 -14 -3 -1 5 23 17 31 4 28 -44z m-99 -26 c-2 -65 30 -186
70 -268 29 -59 43 -138 21 -125 -18 11 -88 141 -109 201 -22 65 -45 193 -37
202 3 3 14 -6 25 -19 25 -29 28 -13 4 21 -15 21 -15 23 0 17 11 -4 14 -2 10 9
-3 7 0 14 7 14 7 0 10 -18 9 -52z m157 5 c48 -75 106 -230 112 -300 2 -35 2
-63 -1 -63 -16 0 -50 67 -66 133 -11 41 -33 104 -50 141 -32 72 -49 136 -34
136 4 0 22 -21 39 -47z m-228 -3 c8 -123 50 -247 119 -351 50 -77 53 -95 18
-111 -36 -16 -69 11 -122 98 -47 78 -78 162 -93 259 -13 84 -8 101 36 115 20
7 33 14 30 17 -3 3 -19 1 -35 -5 -36 -13 -42 -6 -8 8 38 15 52 8 55 -30z m163
-26 c9 -11 20 -29 24 -42 3 -12 10 -20 15 -17 11 7 54 -111 45 -125 -4 -7 0
-29 10 -50 15 -32 15 -45 5 -94 -10 -49 -14 -55 -27 -45 -22 19 -49 78 -63
139 -7 30 -30 93 -51 139 -36 78 -48 129 -33 144 8 7 50 -21 75 -49z m-261 32
c0 -7 -201 -79 -206 -74 -2 3 40 21 93 41 99 36 113 40 113 33z m11 -141 c21
-113 94 -263 156 -321 l25 -24 -28 -11 c-141 -54 -319 -117 -323 -114 -2 3 0
10 5 17 10 13 11 51 5 118 -3 23 -6 8 -11 -43 -8 -82 -20 -107 -53 -107 -31 0
-98 77 -138 160 -55 114 -56 117 -17 134 l33 15 -37 -5 c-34 -6 -38 -4 -38 15
0 12 6 21 14 21 8 0 18 5 21 10 4 7 -2 9 -18 5 -22 -6 -25 -3 -29 31 -3 29 -1
38 14 42 10 2 18 8 18 12 0 5 -9 6 -20 3 -21 -5 -25 3 -12 23 11 18 82 45 76
30 -5 -14 16 -40 46 -56 15 -8 18 -6 15 8 -1 9 3 24 11 32 7 8 13 19 13 25 0
5 17 13 37 18 21 4 42 11 48 16 6 5 20 11 31 13 11 1 22 6 25 9 3 3 30 15 60
26 l55 21 3 -32 c1 -17 7 -58 13 -91z m499 10 c0 -5 -5 -3 -10 5 -5 8 -10 20
-10 25 0 6 5 3 10 -5 5 -8 10 -19 10 -25z m-795 5 c3 -5 2 -10 -4 -10 -5 0
-13 5 -16 10 -3 6 -2 10 4 10 5 0 13 -4 16 -10z m-158 -63 c-3 -7 -25 -19 -48
-26 -24 -6 -53 -16 -64 -21 -11 -5 -51 -21 -88 -35 -58 -21 -72 -23 -87 -12
-17 12 -1 20 133 69 142 53 166 57 154 25z m688 -44 c8 -26 13 -48 11 -50 -4
-5 -46 106 -46 120 1 19 20 -19 35 -70z m-685 -2 c0 -11 2 -26 6 -34 3 -10
-10 -20 -48 -35 -217 -83 -212 -82 -222 -56 -3 8 -10 13 -15 10 -5 -3 -15 2
-22 12 -13 16 -13 16 5 2 18 -14 19 -13 14 1 -5 14 18 26 125 67 73 28 138 51
145 51 6 1 12 -8 12 -18z m1133 -61 c-1 -3 -16 -11 -33 -18 -29 -12 -32 -11
-26 3 3 9 6 30 6 47 l0 31 27 -29 c15 -16 26 -31 26 -34z m-107 -6 c15 -22 15
-27 3 -35 -24 -15 -29 -10 -29 26 0 42 4 43 26 9z m-1356 6 c19 -12 16 -14
-48 -39 l-53 -21 7 22 c3 13 7 23 8 24 0 0 12 5 26 11 31 15 41 15 60 3z m45
0 c3 -5 2 -10 -4 -10 -5 0 -13 5 -16 10 -3 6 -2 10 4 10 5 0 13 -4 16 -10z
m305 -25 c0 -8 -6 -15 -14 -15 -8 0 -16 -4 -18 -8 -1 -4 -50 -25 -106 -47 -86
-31 -105 -36 -113 -24 -4 8 -5 17 -1 21 14 14 206 79 219 74 7 -3 13 -1 13 4
0 6 5 10 10 10 6 0 10 -7 10 -15z m-463 -29 c-3 -8 -26 -21 -52 -29 -37 -13
-50 -14 -66 -4 -17 10 -12 14 49 38 65 24 80 23 69 -5z m1578 14 c-3 -5 -14
-10 -23 -10 -15 0 -15 2 -2 10 20 13 33 13 25 0z m-1419 -45 c28 -27 44 -49
38 -54 -5 -5 -34 -16 -64 -26 -63 -20 -91 -39 -44 -29 30 6 32 4 52 -48 31
-78 42 -127 42 -183 l-1 -50 -20 25 c-45 54 -110 188 -112 233 -1 9 -5 17 -10
17 -5 0 -7 10 -5 22 2 16 17 27 61 42 31 12 57 24 57 28 0 4 -13 2 -30 -3 -26
-10 -32 -8 -54 18 l-25 28 27 12 c38 17 35 18 88 -32z m1154 -6 c0 -9 -40 -33
-44 -27 -2 2 -1 21 2 42 l5 40 18 -23 c11 -13 19 -27 19 -32z m-755 -149 c24
-36 55 -72 69 -80 15 -7 26 -16 26 -20 0 -4 -85 -38 -189 -77 -155 -57 -187
-66 -183 -51 2 10 7 16 11 14 4 -3 3 30 -1 73 -7 74 -21 128 -52 202 l-14 34
121 45 122 46 23 -60 c13 -33 43 -90 67 -126z m-490 110 c-3 -4 -13 -10 -24
-13 -16 -4 -20 2 -23 34 l-3 38 27 -26 c15 -14 25 -29 23 -33z m-65 31 c0 -11
3 -27 6 -35 5 -12 2 -15 -10 -10 -10 4 -16 1 -16 -9 0 -8 -12 -18 -26 -21 -27
-7 -48 4 -65 35 -8 15 -1 21 44 38 65 25 67 25 67 2z m1210 -33 c0 -5 -8 -8
-17 -6 -12 2 -19 14 -21 33 l-2 30 20 -24 c11 -13 20 -28 20 -33z m-1376 36
c9 -3 16 -10 16 -14 0 -10 -55 -30 -81 -30 -29 0 -23 25 9 37 35 14 37 14 56
7z m46 -4 c0 -5 -2 -10 -4 -10 -3 0 -8 5 -11 10 -3 6 -1 10 4 10 6 0 11 -4 11
-10z m1525 0 c-3 -5 -12 -10 -18 -10 -7 0 -6 4 3 10 19 12 23 12 15 0z m-100
-40 c-3 -5 -14 -10 -23 -10 -15 0 -15 2 -2 10 20 13 33 13 25 0z m-1579 -15
c4 -8 12 -15 20 -15 18 0 48 -46 41 -64 -3 -8 2 -16 14 -19 26 -7 24 -26 -3
-37 -21 -9 -20 -9 7 -7 27 2 31 -2 51 -53 29 -73 54 -197 47 -239 -7 -39 -54
-67 -86 -49 -28 15 -108 144 -133 217 l-23 66 49 22 c37 16 50 27 50 42 0 12
-4 21 -9 21 -5 0 -7 -8 -4 -18 3 -14 -5 -22 -39 -33 -24 -7 -46 -13 -50 -11
-15 4 -7 -39 19 -105 27 -72 108 -203 124 -203 22 0 6 -17 -28 -30 -21 -7 -54
-26 -74 -42 -22 -18 -42 -26 -52 -22 -11 4 -17 1 -17 -9 0 -42 -72 -16 -116
43 -70 95 -124 247 -124 353 0 81 6 97 36 97 83 0 214 -254 214 -416 0 -26 5
-44 11 -44 19 0 4 127 -25 209 -36 103 -118 237 -157 255 -26 12 -24 26 4 26
13 0 27 3 31 7 4 4 34 15 67 24 44 12 59 13 59 4 0 -7 -10 -17 -22 -23 l-23
-11 23 0 c17 -1 22 -7 23 -31 1 -16 3 -34 4 -40 1 -5 3 -16 4 -22 1 -8 5 -7
11 4 6 9 24 19 40 23 16 4 32 10 35 15 3 5 -11 4 -31 -2 -42 -11 -42 -11 -50
29 -5 27 -2 33 22 47 22 13 24 15 7 11 -34 -9 -30 21 5 33 38 14 42 14 48 -3z
m134 0 c7 -8 16 -13 20 -10 7 5 50 -54 50 -68 0 -5 -75 -37 -89 -37 -16 0 -22
32 -9 48 7 9 8 13 2 9 -6 -3 -23 7 -37 23 l-26 29 27 10 c38 14 48 13 62 -4z
m400 -163 c21 -106 0 -193 -43 -176 -12 4 -17 18 -17 41 0 45 -38 209 -56 245
-14 27 -13 28 18 41 l33 14 27 -51 c14 -29 32 -80 38 -114z m-242 126 c2 -10
-9 -20 -29 -27 -42 -14 -46 -14 -53 5 -4 10 4 19 27 29 37 16 51 15 55 -7z
m37 -106 c38 -99 47 -216 18 -249 -21 -24 -63 -40 -63 -24 0 6 4 11 8 11 11 0
-5 161 -17 173 -5 5 -7 -26 -4 -77 7 -97 -9 -139 -47 -129 -17 5 -20 13 -20
62 0 60 -15 126 -48 208 l-21 51 24 6 c13 3 30 8 38 12 11 4 20 -8 32 -40 10
-25 22 -46 26 -46 5 0 0 22 -10 50 l-19 49 27 10 c43 16 45 14 76 -67z m115
-197 c0 -19 -41 -55 -62 -55 -2 0 -3 33 -3 73 l0 73 32 -40 c18 -23 33 -45 33
-51z m35 -15 c-3 -5 -11 -10 -16 -10 -6 0 -7 5 -4 10 3 6 11 10 16 10 6 0 7
-4 4 -10z"/>
<path d="M2161 1198 c11 -29 29 -71 39 -93 17 -35 18 -36 13 -10 -8 40 -56
155 -65 155 -4 0 2 -24 13 -52z"/>
<path d="M2260 1195 c0 -5 5 -17 10 -25 5 -8 10 -10 10 -5 0 6 -5 17 -10 25
-5 8 -10 11 -10 5z"/>
<path d="M2285 1148 c-3 -7 -1 -26 4 -43 9 -28 9 -27 8 12 -2 45 -5 51 -12 31z"/>
<path d="M2301 1054 c0 -11 3 -14 6 -6 3 7 2 16 -1 19 -3 4 -6 -2 -5 -13z"/>
<path d="M1295 1060 c-16 -7 -17 -9 -3 -9 9 -1 20 4 23 9 7 11 7 11 -20 0z"/>
<path d="M1295 890 c9 -16 18 -30 21 -30 2 0 -2 14 -11 30 -9 17 -18 30 -21
30 -2 0 2 -13 11 -30z"/>
<path d="M505 670 c-8 -13 5 -13 25 0 13 8 13 10 -2 10 -9 0 -20 -4 -23 -10z"/>
</g>
</svg>
