<?xml version="1.0" standalone="no"?>
<!DOCTYPE svg PUBLIC "-//W3C//DTD SVG 20010904//EN"
 "http://www.w3.org/TR/2001/REC-SVG-20010904/DTD/svg10.dtd">
<svg version="1.0" xmlns="http://www.w3.org/2000/svg"
 width="168.000000pt" height="119.000000pt" viewBox="0 0 168.000000 119.000000"
 preserveAspectRatio="xMidYMid meet">

<g transform="translate(0.000000,119.000000) scale(0.100000,-0.100000)"
fill="#000000" stroke="none">
<path d="M1340 1086 c-19 -7 -73 -28 -120 -46 -47 -17 -94 -33 -104 -36 -24
-4 -148 -51 -201 -75 -22 -10 -226 -87 -454 -172 -407 -152 -414 -155 -428
-188 -20 -46 -4 -136 43 -242 78 -179 169 -270 223 -224 9 8 61 30 116 50 55
19 361 132 680 251 487 180 580 218 578 233 -2 10 -9 70 -16 133 -15 124 -34
173 -88 235 -39 44 -47 40 -18 -9 23 -39 20 -49 -18 -61 -17 -4 -23 -2 -23 8
0 8 7 17 15 21 27 10 5 39 -25 33 -21 -5 -34 1 -59 27 l-32 33 26 11 c15 7 25
8 25 2 0 -6 5 -10 12 -10 6 0 20 -7 30 -17 10 -9 18 -11 18 -5 0 6 -17 23 -37
37 -42 28 -88 32 -143 11z m85 -5 c-14 -14 -73 -26 -60 -13 6 6 21 12 35 15
14 2 27 5 30 6 2 0 0 -3 -5 -8z m-85 -29 c0 -4 -19 -14 -42 -23 -26 -9 -42
-20 -40 -29 2 -10 0 -11 -10 -3 -9 8 -28 6 -66 -9 -56 -21 -66 -38 -11 -19 30
10 35 9 61 -16 l29 -28 -38 -18 -38 -17 33 5 c36 5 57 -19 31 -36 -9 -6 -3 -7
18 -3 29 6 33 3 52 -35 49 -96 67 -241 34 -278 -13 -15 -118 -63 -137 -63 -1
0 0 33 2 73 3 60 1 77 -13 91 -10 9 -20 15 -22 12 -3 -3 -5 -41 -4 -84 1 -67
-2 -83 -19 -103 l-21 -24 6 40 c7 56 -6 73 -44 59 -29 -11 -29 -11 -36 25 -8
46 -36 134 -41 128 -2 -2 5 -36 16 -75 20 -72 24 -136 11 -181 -6 -22 -48 -40
-376 -162 l-370 -137 -8 32 c-41 160 -94 277 -157 348 -24 28 -38 53 -34 59 5
9 0 10 -14 7 -13 -4 -20 -2 -16 4 3 5 19 6 35 3 21 -5 29 -3 29 8 0 9 116 57
356 146 326 121 359 131 385 120 29 -12 87 -81 110 -132 7 -15 16 -27 21 -27
5 0 4 8 -1 18 -7 13 -6 23 2 31 9 9 6 13 -11 18 -17 4 -21 10 -17 24 5 14 1
19 -11 19 -9 0 -34 16 -55 35 l-39 35 32 1 c46 1 103 23 103 40 0 8 57 35 150
70 152 59 175 65 175 51z m84 -52 c70 -78 119 -217 114 -327 l-3 -68 -45 -22
c-25 -12 -49 -22 -55 -23 -6 0 -10 38 -10 93 -1 78 -5 102 -29 157 -15 36 -28
74 -27 84 0 25 -17 56 -31 56 -7 0 -25 12 -40 27 l-28 27 42 18 c62 24 72 23
112 -22z m-94 -72 c20 2 22 1 10 -7 -22 -16 -57 -13 -57 4 0 8 5 11 11 7 6 -3
22 -5 36 -4z m-345 -7 c-16 -14 -55 -23 -55 -12 0 9 20 17 50 20 8 1 10 -2 5
-8z m618 -36 c9 -20 17 -44 17 -55 0 -10 5 -22 10 -25 11 -7 14 -116 4 -152
-5 -17 -47 -43 -70 -43 -1 0 0 26 3 58 4 52 -8 113 -42 219 -5 16 -2 22 12 26
39 10 50 6 66 -28z m-273 5 c-8 -5 -26 -9 -40 -9 -23 0 -23 1 -5 9 11 5 29 9
40 9 17 1 17 -1 5 -9z m67 -192 c-3 -8 -6 -5 -6 6 -1 11 2 17 5 13 3 -3 4 -12
1 -19z m10 -60 c-3 -8 -6 -5 -6 6 -1 11 2 17 5 13 3 -3 4 -12 1 -19z m-210
-20 c-3 -8 -6 -5 -6 6 -1 11 2 17 5 13 3 -3 4 -12 1 -19z m-1110 -77 c45 -18
138 -170 177 -289 16 -51 24 -137 13 -148 -11 -12 -66 27 -97 68 -44 61 -107
192 -125 263 -16 63 -20 129 -7 123 4 -3 21 -10 39 -17z"/>
</g>
</svg>
