<?xml version="1.0" standalone="no"?>
<!DOCTYPE svg PUBLIC "-//W3C//DTD SVG 20010904//EN"
 "http://www.w3.org/TR/2001/REC-SVG-20010904/DTD/svg10.dtd">
<svg version="1.0" xmlns="http://www.w3.org/2000/svg"
 width="119.000000pt" height="79.000000pt" viewBox="0 0 119.000000 79.000000"
 preserveAspectRatio="xMidYMid meet">

<g transform="translate(0.000000,79.000000) scale(0.100000,-0.100000)"
fill="#000000" stroke="none">
<path d="M640 720 c-87 -13 -156 -32 -285 -79 -93 -34 -178 -66 -187 -71 -10
-6 -26 -10 -35 -10 -10 0 -29 -9 -43 -20 -23 -17 -25 -27 -29 -104 -6 -166 68
-376 133 -376 3 0 14 10 26 22 14 15 20 18 20 7 1 -10 6 -8 18 7 10 12 29 22
43 22 13 1 112 34 219 75 252 94 331 145 493 314 64 67 117 128 117 136 0 8
-8 25 -18 37 -14 17 -36 24 -122 35 -181 22 -231 23 -350 5z m171 -40 c31 -39
49 -50 49 -31 0 5 -12 24 -26 41 l-27 31 64 -6 c35 -4 90 -14 123 -22 32 -8
61 -12 64 -9 8 9 31 -27 32 -49 0 -18 -139 -185 -160 -193 -5 -2 -10 18 -12
45 -2 36 -7 49 -20 51 -15 3 -16 -3 -11 -47 8 -66 -1 -93 -34 -113 l-28 -16 0
50 c0 35 -4 53 -14 56 -11 4 -13 -4 -7 -37 8 -55 -1 -86 -30 -106 l-24 -16 1
48 c1 59 -51 219 -70 215 -9 -2 -11 3 -7 13 3 9 2 14 -3 11 -5 -3 -12 1 -15
10 -4 9 -2 13 5 8 19 -11 -7 29 -35 55 -19 18 -23 27 -14 33 23 14 49 8 84
-18 33 -25 50 -20 19 6 -25 21 -17 30 25 30 34 0 43 -6 71 -40z m-214 -22 c69
-73 113 -188 113 -292 0 -64 -8 -85 -31 -90 -8 -2 -27 -8 -42 -14 -16 -7 -29
-12 -30 -12 -1 0 -2 26 -3 58 0 79 -12 129 -30 136 -13 5 -15 2 -10 -16 4 -13
9 -47 13 -75 5 -48 4 -53 -13 -52 -11 0 -13 3 -6 6 6 2 12 13 12 23 0 14 -7
18 -26 17 -38 -3 -55 -32 -30 -50 13 -10 15 -16 8 -21 -15 -9 -16 -46 -1 -46
5 0 7 -4 4 -10 -3 -5 -17 -10 -31 -10 -23 0 -24 3 -25 68 -1 37 -1 70 0 74 0
4 -8 22 -19 40 -16 26 -20 29 -26 15 -3 -10 -1 -37 5 -62 25 -100 8 -165 -43
-165 -27 0 -40 24 -53 97 -8 43 -7 55 6 68 14 13 13 21 -3 70 -20 58 -47 91
-66 80 -6 -4 -26 11 -45 32 l-34 38 35 12 c44 15 91 -1 117 -40 9 -15 25 -25
36 -24 24 1 17 12 -7 12 -10 0 -18 9 -20 22 -2 13 -14 31 -28 42 l-24 19 28 8
c15 4 33 6 40 5 6 -1 12 3 12 9 0 21 54 10 82 -17 15 -14 31 -23 35 -19 5 4
-4 18 -19 31 -29 25 -25 35 23 54 42 17 64 12 96 -21z m510 -10 c-3 -8 -6 -5
-6 6 -1 11 2 17 5 13 3 -3 4 -12 1 -19z m-972 -138 c3 -6 -1 -7 -9 -4 -18 7
-21 14 -7 14 6 0 13 -4 16 -10z m-21 -16 c9 -8 16 -23 16 -31 0 -9 3 -13 7
-10 8 8 64 -84 57 -94 -2 -4 3 -23 11 -43 20 -47 20 -195 1 -221 -12 -17 -16
-18 -32 -5 -23 20 -69 123 -83 188 -13 64 -15 232 -2 232 5 0 17 -7 25 -16z
m84 -14 c10 -16 10 -20 -1 -20 -8 0 -19 11 -25 25 -14 30 6 26 26 -5z m40 -82
c20 -42 21 -61 2 -42 -15 15 -41 84 -31 84 5 0 18 -19 29 -42z m42 -82 c0 -8
5 -16 11 -18 7 -2 7 -12 -2 -31 -14 -32 -29 -35 -29 -7 0 11 -4 20 -10 20 -5
0 -10 11 -10 25 0 18 5 25 20 25 11 0 20 -6 20 -14z m290 -41 c0 -16 -34 -38
-44 -28 -7 7 23 43 36 43 4 0 8 -7 8 -15z m-280 -80 c-7 -8 -16 -12 -21 -9
-13 8 -1 24 18 24 13 0 13 -3 3 -15z m78 -27 c13 -3 12 -5 -5 -10 -20 -5 -23
-2 -22 20 1 16 3 20 6 10 2 -9 12 -18 21 -20z"/>
<path d="M376 601 c-4 -5 3 -7 14 -4 26 7 53 -15 45 -36 -5 -13 -4 -13 6 -4
10 10 9 17 -6 33 -19 21 -50 27 -59 11z"/>
</g>
</svg>
